<svg width="146" height="64" viewBox="0 0 146 64" fill="none" xmlns="http://www.w3.org/2000/svg">
<path d="M60 32H138C142.418 32 146 35.5817 146 40V44C146 48.4183 142.418 52 138 52H60V32Z" fill="#311908"/>
<path d="M80.2784 40.4375H77.7898C77.7443 40.1155 77.6515 39.8295 77.5114 39.5795C77.3712 39.3258 77.1913 39.1098 76.9716 38.9318C76.7519 38.7538 76.4981 38.6174 76.2102 38.5227C75.9261 38.428 75.6174 38.3807 75.2841 38.3807C74.6818 38.3807 74.1572 38.5303 73.7102 38.8295C73.2633 39.125 72.9167 39.5568 72.6705 40.125C72.4242 40.6894 72.3011 41.375 72.3011 42.1818C72.3011 43.0114 72.4242 43.7083 72.6705 44.2727C72.9205 44.8371 73.2689 45.2633 73.7159 45.5511C74.1629 45.839 74.6799 45.983 75.267 45.983C75.5966 45.983 75.9015 45.9394 76.1818 45.8523C76.4659 45.7652 76.7178 45.6383 76.9375 45.4716C77.1572 45.3011 77.339 45.0947 77.483 44.8523C77.6307 44.6098 77.733 44.3333 77.7898 44.0227L80.2784 44.0341C80.214 44.5682 80.053 45.0833 79.7955 45.5795C79.5417 46.072 79.1989 46.5133 78.767 46.9034C78.339 47.2898 77.8277 47.5966 77.233 47.8239C76.642 48.0473 75.9735 48.1591 75.2273 48.1591C74.1894 48.1591 73.2614 47.9242 72.4432 47.4545C71.6288 46.9848 70.9848 46.3049 70.5114 45.4148C70.0417 44.5246 69.8068 43.447 69.8068 42.1818C69.8068 40.9129 70.0455 39.8333 70.5227 38.9432C71 38.053 71.6477 37.375 72.4659 36.9091C73.2841 36.4394 74.2045 36.2045 75.2273 36.2045C75.9015 36.2045 76.5265 36.2992 77.1023 36.4886C77.6818 36.678 78.1951 36.9545 78.642 37.3182C79.089 37.678 79.4527 38.1193 79.733 38.642C80.017 39.1648 80.1989 39.7633 80.2784 40.4375ZM84.4176 42.9545V48H81.9972V36.3636H84.3494V40.8125H84.4517C84.6487 40.2973 84.9669 39.8939 85.4062 39.6023C85.8456 39.3068 86.3968 39.1591 87.0597 39.1591C87.6657 39.1591 88.1941 39.2917 88.6449 39.5568C89.0994 39.8182 89.4517 40.1951 89.7017 40.6875C89.9555 41.1761 90.0805 41.7614 90.0767 42.4432V48H87.6562V42.875C87.66 42.3371 87.5237 41.9186 87.2472 41.6193C86.9744 41.3201 86.5919 41.1705 86.0994 41.1705C85.7699 41.1705 85.4782 41.2405 85.2244 41.3807C84.9744 41.5208 84.7775 41.7254 84.6335 41.9943C84.4934 42.2595 84.4214 42.5795 84.4176 42.9545ZM95.9588 48.1705C95.0611 48.1705 94.2884 47.9886 93.6406 47.625C92.9967 47.2576 92.5005 46.7386 92.152 46.0682C91.8035 45.3939 91.6293 44.5966 91.6293 43.6761C91.6293 42.7784 91.8035 41.9905 92.152 41.3125C92.5005 40.6345 92.991 40.1061 93.6236 39.7273C94.2599 39.3485 95.0062 39.1591 95.8622 39.1591C96.438 39.1591 96.974 39.2519 97.4702 39.4375C97.9702 39.6193 98.4058 39.8939 98.777 40.2614C99.152 40.6288 99.4437 41.0909 99.652 41.6477C99.8603 42.2008 99.9645 42.8485 99.9645 43.5909V44.2557H92.5952V42.7557H97.6861C97.6861 42.4072 97.6103 42.0985 97.4588 41.8295C97.3073 41.5606 97.0971 41.3504 96.8281 41.1989C96.563 41.0436 96.2543 40.9659 95.902 40.9659C95.5346 40.9659 95.2088 41.0511 94.9247 41.2216C94.6444 41.3883 94.4247 41.6136 94.2656 41.8977C94.1065 42.178 94.0251 42.4905 94.0213 42.8352V44.2614C94.0213 44.6932 94.1009 45.0663 94.2599 45.3807C94.4228 45.6951 94.652 45.9375 94.9474 46.108C95.2429 46.2784 95.5933 46.3636 95.9986 46.3636C96.2675 46.3636 96.5137 46.3258 96.7372 46.25C96.9607 46.1742 97.152 46.0606 97.3111 45.9091C97.4702 45.7576 97.5914 45.572 97.6747 45.3523L99.9134 45.5C99.7997 46.0379 99.5668 46.5076 99.2145 46.9091C98.866 47.3068 98.4152 47.6174 97.8622 47.8409C97.313 48.0606 96.6785 48.1705 95.9588 48.1705ZM105.487 48.1705C104.593 48.1705 103.824 47.9811 103.18 47.6023C102.54 47.2197 102.048 46.6894 101.703 46.0114C101.362 45.3333 101.192 44.553 101.192 43.6705C101.192 42.7765 101.364 41.9924 101.709 41.3182C102.057 40.6402 102.552 40.1117 103.192 39.733C103.832 39.3504 104.593 39.1591 105.476 39.1591C106.237 39.1591 106.904 39.2973 107.476 39.5739C108.048 39.8504 108.5 40.2386 108.834 40.7386C109.167 41.2386 109.351 41.8258 109.385 42.5H107.101C107.036 42.0644 106.866 41.714 106.589 41.4489C106.317 41.1799 105.959 41.0455 105.516 41.0455C105.141 41.0455 104.813 41.1477 104.533 41.3523C104.256 41.553 104.04 41.8466 103.885 42.233C103.73 42.6193 103.652 43.0871 103.652 43.6364C103.652 44.1932 103.728 44.6667 103.879 45.0568C104.035 45.447 104.252 45.7443 104.533 45.9489C104.813 46.1534 105.141 46.2557 105.516 46.2557C105.792 46.2557 106.04 46.1989 106.26 46.0852C106.483 45.9716 106.667 45.8068 106.811 45.5909C106.959 45.3712 107.055 45.108 107.101 44.8011H109.385C109.347 45.4678 109.165 46.0549 108.839 46.5625C108.518 47.0663 108.072 47.4602 107.504 47.7443C106.936 48.0284 106.264 48.1705 105.487 48.1705ZM113.128 45.4886L113.134 42.5852H113.486L116.281 39.2727H119.06L115.304 43.6591H114.73L113.128 45.4886ZM110.935 48V36.3636H113.355V48H110.935ZM116.389 48L113.821 44.1989L115.435 42.4886L119.224 48H116.389ZM122.276 36.3636V37.5909C122.276 37.9394 122.207 38.2955 122.071 38.6591C121.938 39.0189 121.76 39.3598 121.537 39.6818C121.313 40 121.069 40.2708 120.804 40.4943L119.736 39.8636C119.925 39.5644 120.092 39.233 120.236 38.8693C120.384 38.5057 120.457 38.0833 120.457 37.6023V36.3636H122.276ZM126.393 36.3636V48H123.933V36.3636H126.393ZM133.014 39.2727V41.0909H127.759V39.2727H133.014ZM128.952 37.1818H131.372V45.3182C131.372 45.5417 131.406 45.7159 131.474 45.8409C131.543 45.9621 131.637 46.0473 131.759 46.0966C131.884 46.1458 132.027 46.1705 132.19 46.1705C132.304 46.1705 132.418 46.161 132.531 46.142C132.645 46.1193 132.732 46.1023 132.793 46.0909L133.173 47.892C133.052 47.9299 132.882 47.9735 132.662 48.0227C132.442 48.0758 132.175 48.108 131.861 48.1193C131.277 48.142 130.766 48.0644 130.327 47.8864C129.891 47.7083 129.552 47.4318 129.31 47.0568C129.067 46.6818 128.948 46.2083 128.952 45.6364V37.1818Z" fill="white"/>
<g clip-path="url(#clip0_22_196)">
<path d="M16 3.89542H43.7686C47.0959 3.89546 50.297 5.15126 52.7119 7.40504L56.9434 11.3551C59.5331 13.7721 60.9999 17.131 61 20.6444V47.5522C61 54.6213 55.1797 60.3522 48 60.3522H16C8.8203 60.3522 3 54.6214 3 47.5522V16.6954C3 9.62618 8.8203 3.89542 16 3.89542Z" fill="#FFCF54" stroke="#311908" stroke-width="6"/>
<path d="M48.4886 2.95206C49.428 2.95206 50.3329 3.30551 51.0179 3.93993L60.0977 12.3497L61.4176 13.6359C61.8348 14.0425 62.1722 14.5213 62.4125 15.0482L62.659 15.5887C62.7713 15.835 62.8294 16.1016 62.8294 16.3712C62.8294 17.4111 61.9826 18.2567 60.9254 18.2727L49.9195 18.4391C47.1202 18.4814 44.8228 16.2565 44.8228 13.5032V9.0364V6.55707C44.8228 4.56414 46.4621 2.95206 48.4886 2.95206Z" fill="#F8AB30" stroke="#311908" stroke-width="6"/>
<mask id="mask0_22_196" style="mask-type:luminance" maskUnits="userSpaceOnUse" x="8" y="12" width="48" height="46">
<path d="M55.4146 12.3497H8.97559V57.6021H55.4146V12.3497Z" fill="white"/>
</mask>
<g mask="url(#mask0_22_196)">
<path d="M45.2617 34.7474C45.2617 35.31 45.0323 35.8495 44.6241 36.2473C44.2158 36.6451 43.6622 36.8686 43.0848 36.8686H27.1214C26.5441 36.8686 25.9904 36.6451 25.5822 36.2473C25.1739 35.8495 24.9446 35.31 24.9446 34.7474C24.9446 34.1848 25.1739 33.6453 25.5822 33.2475C25.9904 32.8496 26.5441 32.6262 27.1214 32.6262H43.0848C43.6622 32.6262 44.2158 32.8496 44.6241 33.2475C45.0323 33.6453 45.2617 34.1848 45.2617 34.7474ZM27.1214 25.5555H43.0848C43.6622 25.5555 44.2158 25.332 44.6241 24.9342C45.0323 24.5364 45.2617 23.9968 45.2617 23.4343C45.2617 22.8717 45.0323 22.3322 44.6241 21.9344C44.2158 21.5366 43.6622 21.3131 43.0848 21.3131H27.1214C26.5441 21.3131 25.9904 21.5366 25.5822 21.9344C25.1739 22.3322 24.9446 22.8717 24.9446 23.4343C24.9446 23.9968 25.1739 24.5364 25.5822 24.9342C25.9904 25.332 26.5441 25.5555 27.1214 25.5555ZM43.0848 43.9392H27.1214C26.5441 43.9392 25.9904 44.1628 25.5822 44.5605C25.1739 44.9583 24.9446 45.4979 24.9446 46.0605C24.9446 46.623 25.1739 47.1626 25.5822 47.5604C25.9904 47.9582 26.5441 48.1817 27.1214 48.1817H43.0848C43.6622 48.1817 44.2158 47.9582 44.6241 47.5604C45.0323 47.1626 45.2617 46.623 45.2617 46.0605C45.2617 45.4979 45.0323 44.9583 44.6241 44.5605C44.2158 44.1628 43.6622 43.9392 43.0848 43.9392ZM18.3252 19.1053L14.0604 23.2575L12.6981 21.9283C12.2892 21.5298 11.7345 21.3059 11.1562 21.3059C10.5779 21.3059 10.0232 21.5298 9.61427 21.9283C9.20533 22.3267 8.97559 22.8672 8.97559 23.4308C8.97559 23.9943 9.20533 24.5348 9.61427 24.9333L12.5167 27.7615C12.7189 27.9593 12.9593 28.1162 13.2238 28.2233C13.4884 28.3303 13.7721 28.3855 14.0586 28.3855C14.3451 28.3855 14.6288 28.3303 14.8934 28.2233C15.158 28.1162 15.3983 27.9593 15.6005 27.7615L21.4054 22.105C21.8144 21.7065 22.0441 21.1661 22.0441 20.6025C22.0441 20.039 21.8144 19.4984 21.4054 19.1C20.9965 18.7015 20.4418 18.4776 19.8635 18.4776C19.2852 18.4776 18.7305 18.7015 18.3216 19.1L18.3252 19.1053ZM18.3252 30.4184L14.0604 34.5706L12.6981 33.2413C12.2892 32.8428 11.7345 32.6189 11.1562 32.6189C10.5779 32.6189 10.0232 32.8428 9.61427 33.2413C9.20533 33.6398 8.97559 34.1803 8.97559 34.7438C8.97559 35.3074 9.20533 35.8479 9.61427 36.2463L12.5167 39.0747C12.7189 39.2724 12.9593 39.4293 13.2238 39.5363C13.4884 39.6434 13.7721 39.6985 14.0586 39.6985C14.3451 39.6985 14.6288 39.6434 14.8934 39.5363C15.158 39.4293 15.3983 39.2724 15.6005 39.0747L21.4054 33.4181C21.8144 33.0196 22.0441 32.4791 22.0441 31.9156C22.0441 31.352 21.8144 30.8116 21.4054 30.4131C20.9965 30.0146 20.4418 29.7907 19.8635 29.7907C19.2852 29.7907 18.7305 30.0146 18.3216 30.4131L18.3252 30.4184ZM18.3252 41.7314L14.0604 45.8837L12.6981 44.5544C12.4956 44.3571 12.2552 44.2006 11.9907 44.0938C11.7261 43.987 11.4426 43.9321 11.1562 43.9321C10.8698 43.9321 10.5863 43.987 10.3217 44.0938C10.0571 44.2006 9.81676 44.3571 9.61427 44.5544C9.41178 44.7518 9.25116 44.986 9.14157 45.2438C9.03199 45.5015 8.97559 45.7779 8.97559 46.057C8.97559 46.336 9.03199 46.6123 9.14157 46.8701C9.25116 47.1279 9.41178 47.3622 9.61427 47.5595L12.5167 50.3877C12.7189 50.5855 12.9593 50.7424 13.2238 50.8495C13.4884 50.9565 13.7721 51.0116 14.0586 51.0116C14.3451 51.0116 14.6288 50.9565 14.8934 50.8495C15.158 50.7424 15.3983 50.5855 15.6005 50.3877L21.4054 44.7312C21.8144 44.3327 22.0441 43.7922 22.0441 43.2286C22.0441 42.6651 21.8144 42.1246 21.4054 41.7261C20.9965 41.3277 20.4418 41.1038 19.8635 41.1038C19.2852 41.1038 18.7305 41.3277 18.3216 41.7261L18.3252 41.7314Z" fill="#311908"/>
</g>
</g>
<defs>
<clipPath id="clip0_22_196">
<rect width="66" height="64" fill="white"/>
</clipPath>
</defs>
</svg>
